<?xml version="1.0" encoding="UTF-8" standalone="no"?>
<!-- Created with Inkscape (http://www.inkscape.org/) -->

<svg
   xmlns:dc="http://purl.org/dc/elements/1.1/"
   xmlns:cc="http://creativecommons.org/ns#"
   xmlns:rdf="http://www.w3.org/1999/02/22-rdf-syntax-ns#"
   xmlns:svg="http://www.w3.org/2000/svg"
   xmlns="http://www.w3.org/2000/svg"
   xmlns:sodipodi="http://sodipodi.sourceforge.net/DTD/sodipodi-0.dtd"
   xmlns:inkscape="http://www.inkscape.org/namespaces/inkscape"
   width="59.928123mm"
   height="12.757881mm"
   viewBox="0 0 59.928123 12.757881"
   version="1.1"
   id="svg2717"
   inkscape:version="0.92.2 5c3e80d, 2017-08-06"
   sodipodi:docname="bawue-logo.svg">
  <defs
     id="defs2711" />
  <sodipodi:namedview
     id="base"
     pagecolor="#ffffff"
     bordercolor="#666666"
     borderopacity="1.0"
     inkscape:pageopacity="0.0"
     inkscape:pageshadow="2"
     inkscape:zoom="0.35"
     inkscape:cx="553.24999"
     inkscape:cy="-581.6049"
     inkscape:document-units="mm"
     inkscape:current-layer="layer1"
     showgrid="false"
     inkscape:window-width="1440"
     inkscape:window-height="855"
     inkscape:window-x="0"
     inkscape:window-y="1"
     inkscape:window-maximized="1" />
  <metadata
     id="metadata2714">
    <rdf:RDF>
      <cc:Work
         rdf:about="">
        <dc:format>image/svg+xml</dc:format>
        <dc:type
           rdf:resource="http://purl.org/dc/dcmitype/StillImage" />
        <dc:title></dc:title>
      </cc:Work>
    </rdf:RDF>
  </metadata>
  <g
     inkscape:label="Layer 1"
     inkscape:groupmode="layer"
     id="layer1"
     transform="translate(40.547394,17.807512)">
    <path
       inkscape:connector-curvature="0"
       id="path354"
       d="M 5.8346147,-5.6104959 V -11.36794 c 0,-1.551671 -1.211295,-2.761588 -2.762967,-2.761588 -0.372071,0 -0.745519,0.07717 -1.070735,0.216352 -0.077168,-0.139182 -0.248047,-0.2949 -0.62012,-0.2949 H 0.99218867 c -0.666969,0 -0.666969,0.51263 -0.666969,0.51263 v 8.0849501 c 0,0 0,0.496093 0.666969,0.496093 H 1.3807927 c 0.682133,0 0.682133,-0.496093 0.682133,-0.496093 V -11.36794 c 0,-0.5898 0.450617,-1.023882 1.008722,-1.023882 0.574643,0 1.023884,0.450618 1.023884,1.023882 v 5.7574441 c 0,0 0,0.496093 0.668348,0.496093 h 0.403765 c 0.66697,0 0.66697,-0.496093 0.66697,-0.496093 m 6.8888133,-4.4069661 v -1.645378 c 0,-1.551671 -1.211297,-2.776747 -2.7615893,-2.776747 -1.536514,0 -2.747809,1.225076 -2.747809,2.761589 v 3.7703123 c 0,1.5213538 1.211295,2.7629658 2.747809,2.7629658 1.5502923,0 2.7615893,-1.241612 2.7615893,-2.7629658 0,0 0,-0.4960937 -0.666972,-0.4960937 h -0.403765 c -0.666967,0 -0.666967,0.4960937 -0.666967,0.4960937 0,0.5594828 -0.450622,1.0252608 -1.0238853,1.0252608 -0.558106,0 -1.008723,-0.450619 -1.008723,-1.0252608 v -1.5985244 h 3.1033403 c 0.666972,0 0.666972,-0.5112519 0.666972,-0.5112519 m -1.737704,-1.660536 v 0.418923 H 8.9531157 v -0.418923 c 0,-0.589801 0.450617,-1.023883 1.008723,-1.023883 0.5732633,0 1.0238853,0.449241 1.0238853,1.023883 m 5.633418,6.5635951 c 1.550292,0 2.761586,-1.225075 2.761586,-2.7615878 0,0 0,-0.4974723 -0.668348,-0.4974723 h -0.403764 c -0.666973,0 -0.666973,0.4974723 -0.666973,0.4974723 0,0.5581048 -0.449236,1.0238818 -1.022501,1.0238818 -0.559485,0 -1.010105,-0.450618 -1.010105,-1.0238818 v -4.5006733 h 2.111156 c 0,0 0.51263,0 0.51263,-0.66697 v -0.403765 c 0,-0.666971 -0.51263,-0.666971 -0.51263,-0.666971 h -2.111156 v -1.799718 c 0,0 0,-0.497471 -0.682127,-0.497471 h -0.388607 c -0.665591,0 -0.665591,0.497471 -0.665591,0.497471 v 8.0380973 c 0,1.5365128 1.209918,2.7615878 2.74643,2.7615878"
       style="fill:#f0bd0f;fill-opacity:1;fill-rule:evenodd;stroke:none;stroke-width:0.35277775" />
    <path
       inkscape:connector-curvature="0"
       id="path356"
       d="m -0.89985733,-5.9522499 c 0,-0.465777 -0.37344797,-0.853005 -0.83922597,-0.853005 -0.464397,0 -0.837848,0.387228 -0.837848,0.853005 0,0.465777 0.373451,0.837847 0.837848,0.837847 0.465778,0 0.83922597,-0.37207 0.83922597,-0.837847"
       style="fill:#111111;fill-opacity:1;fill-rule:evenodd;stroke:none;stroke-width:0.35277775" />
    <path
       inkscape:connector-curvature="0"
       id="path358"
       d="m -24.223153,-5.1295609 c -1.536513,0 -2.76159,-1.226454 -2.76159,-2.7615883 v -5.7574438 c 0,0 0.01654,-0.496093 0.682131,-0.496093 h 0.388606 c 0.682127,0 0.682127,0.496093 0.682127,0.496093 v 5.7574438 c 0,0.5732633 0.450621,1.0238823 1.008726,1.0238823 0.57464,0 1.03904,-0.450619 1.03904,-1.0087238 v -5.7726023 c 0,0 0,-0.496093 0.668348,-0.496093 H -22.112 c 0.666972,0 0.666972,0.496093 0.666972,0.496093 v 5.7574438 c 0,0.5732633 0.450617,1.0238823 1.023881,1.0238823 0.558105,0 1.008725,-0.450619 1.008725,-1.0238823 v -5.7574438 c 0,0 0,-0.496093 0.682128,-0.496093 h 0.388606 c 0.666972,0 0.666972,0.496093 0.666972,0.496093 v 8.0849501 c 0,0 0,0.49885 -0.666972,0.49885 h -0.388606 c -0.372071,0 -0.542946,-0.143316 -0.61874,-0.282498 -0.326595,0.139182 -0.684883,0.21773 -1.072113,0.21773 -0.744139,0 -1.411111,-0.279742 -1.908581,-0.745518 -0.480938,0.465776 -1.147907,0.745518 -1.893425,0.745518 m 12.631098,0.07993 c 0.668348,0 0.668348,-0.49885 0.668348,-0.49885 v -8.0849531 c 0,0 0,-0.496094 -0.668348,-0.496094 h -0.403768 c -0.666969,0 -0.666969,0.496094 -0.666969,0.496094 v 5.7574433 c 0,0.5732638 -0.449242,1.0238818 -1.02388,1.0238818 -0.558109,0 -1.008726,-0.450618 -1.008726,-1.0238818 v -5.7574433 c 0,0 0,-0.496094 -0.682128,-0.496094 h -0.388609 c -0.666969,0 -0.666969,0.496094 -0.666969,0.496094 v 5.7574433 c 0,1.5365128 1.209919,2.7615878 2.746432,2.7615878 0.388604,0 0.759296,-0.07717 1.085893,-0.21773 0.07855,0.14056 0.248046,0.282498 0.604956,0.282498 h 0.403768 m 7.5571607,-4.9678271 v -1.645378 c 0,-1.551671 -1.211294,-2.776747 -2.761589,-2.776747 -1.536512,0 -2.74643,1.225076 -2.74643,2.761589 v 3.7703123 c 0,1.5213538 1.209918,2.7629658 2.74643,2.7629658 1.550295,0 2.761589,-1.241612 2.761589,-2.7629658 0,0 0,-0.4960937 -0.66697,-0.4960937 h -0.405143 c -0.665594,0 -0.665594,0.4960937 -0.665594,0.4960937 0,0.5594828 -0.450617,1.0252608 -1.023882,1.0252608 -0.559482,0 -1.010105,-0.450619 -1.010105,-1.0252608 v -1.5985244 h 3.104724 c 0.66697,0 0.66697,-0.5112519 0.66697,-0.5112519 m -1.737707,-1.660536 v 0.418923 h -2.033987 v -0.418923 c 0,-0.589801 0.450623,-1.023883 1.010105,-1.023883 0.573265,0 1.023882,0.449241 1.023882,1.023883 m -24.2383117,6.3003901 c 0.07855,0.124024 0.249424,0.28112 0.604957,0.28112 h 0.403765 c 0.668348,0 0.668348,-0.49885 0.668348,-0.49885 V -11.52228 c 0,-1.551671 -1.211294,-2.762966 -2.762966,-2.762966 -1.536513,0 -2.746428,1.226453 -2.746428,2.762966 0,0 0,0.496094 0.666968,0.496094 h 0.402389 c 0.668348,0 0.668348,-0.496094 0.668348,-0.496094 0,-0.574642 0.449241,-1.02526 1.008723,-1.02526 0.574643,0 1.023884,0.450618 1.023884,1.02526 v 1.007346 c -0.21773,-0.07717 -0.558105,-0.186035 -1.023884,-0.186035 -1.536513,0 -2.746428,1.2264539 -2.746428,2.7629666 0,1.5365125 1.209915,2.7767465 2.746428,2.7767465 0.372071,0 0.728983,-0.07717 1.085896,-0.216352 m -1.085896,-3.5691188 c 0.574643,0 1.023884,0.4492406 1.023884,1.0238825 0,0.5581053 -0.434082,1.0087243 -1.023884,1.0087243 -0.559482,0 -1.008723,-0.450619 -1.008723,-1.0087243 0,-0.5746419 0.449241,-1.0238825 1.008723,-1.0238825 m -6.702778,3.8020068 c 1.550292,0 2.76159,-1.241612 2.76159,-2.7629658 v -3.7703123 c 0,-1.551671 -1.211298,-2.761589 -2.76159,-2.761589 -0.358288,0 -0.700042,0.07717 -1.008722,0.201194 v -3.073025 c 0,0 0,-0.496094 -0.683507,-0.496094 h -0.388606 c -0.666972,0 -0.666972,0.496094 -0.666972,0.496094 v 9.4037323 c 0,1.5213538 1.209918,2.7629658 2.747807,2.7629658 m 1.022505,-6.5332781 v 3.7703123 c 0,0.5746418 -0.449241,1.0252608 -1.022505,1.0252608 -0.559481,0 -1.008722,-0.450619 -1.008722,-1.0252608 v -3.7703123 c 0,-0.589801 0.449241,-1.023883 1.008722,-1.023883 0.573264,0 1.022505,0.449241 1.022505,1.023883"
       style="fill:#111111;fill-opacity:1;fill-rule:evenodd;stroke:none;stroke-width:0.35277775" />
  </g>
</svg>
